# File created by Blade
# Date/Time:  Wed Jan 21 18:34:34 2015
#---------------------------------------------------------
:version 1.10
:name HOM
:units
  mass 1.0
  length 1.000000
  angle deg
:documentation
     Acclaim Skeleton File
:root
   axis xyz
   order TX TY TZ RX RY RZ
   position 0.000000 0.000000 0.000000
   orientation 0 0 0
:bonedata
   begin
      id 1
      name RightUpLeg_dum
      direction -1.000000 0.000000 0.000000
      length 3.693983
      axis 0.0 0.0 0.0 xyz
   end
   begin
      id 2
      name LeftUpLeg_dum
      direction 1.000000 0.000000 0.000000
      length 3.693983
      axis 0.0 0.0 0.0 xyz
   end
   begin
      id 3
      name Spine_dum
      direction 0.000000 1.000000 0.000000
      length 2.392956
      axis 0.0 0.0 0.0 xyz
   end
   begin
      id 4
      name RightUpLeg
      direction 0.000000 -1.000000 0.000000
      length 15.795667
      axis 0.0 0.0 0.0 xyz
      dof rx ry rz
   end
   begin
      id 5
      name RightLeg
      direction 0.000000 -1.000000 0.000000
      length 14.766989
      axis 0.0 0.0 0.0 xyz
      dof rx ry rz
   end
   begin
      id 6
      name RightFoot
      direction 0.000000 -0.258819 0.965926
      length 4.962790
      axis 15.0 0.0 0.0 xyz
      dof rx ry rz
   end
   begin
      id 7
      name RightToeBase
      direction 0.000000 0.000000 1.000000
      length 2.952750
      axis 0.0 0.0 0.0 xyz
      dof rx ry rz
   end
   begin
      id 8
      name LeftUpLeg
      direction 0.000000 -1.000000 0.000000
      length 15.795667
      axis 0.0 0.0 0.0 xyz
      dof rx ry rz
   end
   begin
      id 9
      name LeftLeg
      direction 0.000000 -1.000000 0.000000
      length 14.766989
      axis 0.0 0.0 0.0 xyz
      dof rx ry rz
   end
   begin
      id 10
      name LeftFoot
      direction 0.000000 -0.258819 0.965926
      length 4.962790
      axis 15.0 0.0 0.0 xyz
      dof rx ry rz
   end
   begin
      id 11
      name LeftToeBase
      direction 0.000000 0.000000 1.000000
      length 2.952750
      axis 0.0 0.0 0.0 xyz
      dof rx ry rz
   end
   begin
      id 12
      name Spine
      direction 0.000000 1.000000 0.000000
      length 0.000000
      axis 0.0 0.0 0.0 xyz
      dof rx ry rz
   end
   begin
      id 13
      name Spine_dum1
      direction 0.000000 1.000000 0.000000
      length 13.207411
      axis 0.0 0.0 0.0 xyz
   end
   begin
      id 14
      name Spine_dum2
      direction 0.000000 1.000000 0.000000
      length 13.207411
      axis 0.0 0.0 0.0 xyz
   end
   begin
      id 15
      name Spine_dum3
      direction 0.000000 1.000000 0.000000
      length 19.250100
      axis 0.0 0.0 0.0 xyz
   end
   begin
      id 16
      name RightShoulder
      direction -1.000000 0.000000 0.000000
      length 8.140465
      axis 0.0 0.0 90.0 xyz
      dof rx ry rz
   end
   begin
      id 17
      name RightArm
      direction -1.000000 0.000000 0.000000
      length 10.649840
      axis 0.0 0.0 90.0 xyz
      dof rx ry rz
   end
   begin
      id 18
      name RightForeArm
      direction -1.000000 0.000000 0.000000
      length 8.304624
      axis 0.0 0.0 90.0 xyz
      dof ry rz rx
   end
   begin
      id 19
      name RightHand
      direction -1.000000 0.000000 0.000000
      length 0.000000
      axis 0.0 0.0 90.0 xyz
      dof rx ry rz
   end
   begin
      id 20
      name RightHand_dum1
      direction -1.000000 0.000000 0.000000
      length 3.937000
      axis 0.0 0.0 90.0 xyz
   end
   begin
      id 21
      name RightHand_dum2
      direction 0.000000 0.000000 0.000000
      length 0.000000
      axis 0.0 0.0 90.0 xyz
   end
   begin
      id 22
      name RightHandThumb1
      direction 0.000000 0.000000 1.000000
      length 3.937000
      axis 0.0 0.0 90.0 xyz
      dof rx rz ry
   end
   begin
      id 23
      name LeftShoulder
      direction 1.000000 0.000000 0.000000
      length 8.140465
      axis 0.0 0.0 -90.0 xyz
      dof rx ry rz
   end
   begin
      id 24
      name LeftArm
      direction 1.000000 0.000000 0.000000
      length 10.649840
      axis 0.0 0.0 -90.0 xyz
      dof rx ry rz
   end
   begin
      id 25
      name LeftForeArm
      direction 1.000000 0.000000 0.000000
      length 8.304624
      axis 0.0 0.0 -90.0 xyz
      dof ry rz rx
   end
   begin
      id 26
      name LeftHand
      direction 1.000000 0.000000 0.000000
      length 0.000000
      axis 0.0 0.0 -90.0 xyz
      dof rx ry rz
   end
   begin
      id 27
      name LeftHand_dum1
      direction 1.000000 0.000000 0.000000
      length 3.937000
      axis 0.0 0.0 -90.0 xyz
   end
   begin
      id 28
      name LeftHand_dum2
      direction 0.000000 0.000000 0.000000
      length 0.000000
      axis 0.0 0.0 -90.0 xyz
   end
   begin
      id 29
      name LeftHandThumb1
      direction 0.000000 0.000000 1.000000
      length 3.937000
      axis 0.0 0.0 -90.0 xyz
      dof rx rz ry
   end
   begin
      id 30
      name Head
      direction 0.000000 1.000000 0.000000
      length 4.527550
      axis 0.0 0.0 0.0 xyz
      dof rx ry rz
   end
:hierarchy
   begin
      root RightUpLeg_dum LeftUpLeg_dum Spine_dum
      RightUpLeg_dum RightUpLeg
      LeftUpLeg_dum LeftUpLeg
      Spine_dum Spine
      RightUpLeg RightLeg
      RightLeg RightFoot
      RightFoot RightToeBase
      LeftUpLeg LeftLeg
      LeftLeg LeftFoot
      LeftFoot LeftToeBase
      Spine Spine_dum1 Spine_dum2 Spine_dum3
      Spine_dum1 RightShoulder
      Spine_dum2 LeftShoulder
      Spine_dum3 Head
      RightShoulder RightArm
      RightArm RightForeArm
      RightForeArm RightHand
      RightHand RightHand_dum1 RightHand_dum2
      RightHand_dum2 RightHandThumb1
      LeftShoulder LeftArm
      LeftArm LeftForeArm
      LeftForeArm LeftHand
      LeftHand LeftHand_dum1 LeftHand_dum2
      LeftHand_dum2 LeftHandThumb1
   end

# File created by Blade
# Date/Time:  Wed Jan 21 18:34:41 2015
# Frame Rate: 120.000 fps
#------------------------------------------------------
:FULLY-SPECIFIED
:DEGREES
756
root 3.129594 31.717507 -5.667079 192.989494 69.510962 144.230917
RightUpLeg -41.080682 -30.116221 30.540980
RightLeg 4.953636 -0.000000 -0.000000
RightFoot -40.678242 -36.487549 36.817930
RightToeBase 17.622729 -0.000000 -0.000000
LeftUpLeg -69.929370 -24.896865 18.346758
LeftLeg 5.976115 -0.000000 -0.000000
LeftFoot 41.988589 -36.349984 -56.526303
LeftToeBase 28.593916 -0.000000 -0.000000
Spine -52.709196 21.829270 -42.906881
RightShoulder 1.735351 37.348241 -47.523445
RightArm 18.041339 -20.703183 45.057039
RightForeArm 10.813109 -0.000000 -1.013654
RightHand 6.233993 -0.000000 9.715647
RightHandThumb1 -24.326973 -0.000000 -32.862282
LeftShoulder -22.088259 11.188760 37.884951
LeftArm 5.024267 -13.370926 -45.213800
LeftForeArm 24.393674 -0.000000 -4.601221
LeftHand -30.825149 -0.000000 4.900284
LeftHandThumb1 -26.253704 0.000000 33.147579
Head -3.068405 21.697841 -8.992292
757
root 3.127368 31.713926 -5.661504 193.346134 69.367504 144.524373
RightUpLeg -41.141389 -30.061093 30.629122
RightLeg 4.956796 -0.000000 -0.000000
RightFoot -40.702700 -36.545690 36.791289
RightToeBase 17.657446 -0.000000 -0.000000
LeftUpLeg -70.043471 -24.918396 18.436002
LeftLeg 5.979107 -0.000000 -0.000000
LeftFoot 42.133870 -36.311391 -56.668630
LeftToeBase 28.605079 -0.000000 -0.000000
Spine -52.740671 21.780191 -42.935659
RightShoulder 1.799955 37.431652 -47.531809
RightArm 18.075398 -20.560004 45.154811
RightForeArm 10.739821 -0.000000 -1.093636
RightHand 6.246132 0.000000 9.775561
RightHandThumb1 -24.326973 -0.000000 -32.862282
LeftShoulder -22.115223 11.189309 37.802256
LeftArm 5.071487 -13.440553 -45.430996
LeftForeArm 24.411203 -0.000000 -4.546462
LeftHand -30.928368 -0.000000 4.912545
LeftHandThumb1 -26.253704 0.000000 33.147579
Head -3.043573 21.720458 -8.919775
758
root 3.128856 31.709736 -5.654901 193.634499 69.222734 144.790124
RightUpLeg -41.139630 -30.017206 30.672725
RightLeg 4.928124 -0.000000 -0.000000
RightFoot -40.720875 -36.656499 36.815690
RightToeBase 17.563092 -0.000000 -0.000000
LeftUpLeg -70.047891 -24.916019 18.400585
LeftLeg 5.941847 -0.000000 -0.000000
LeftFoot 42.422465 -36.210602 -56.970479
LeftToeBase 28.701480 -0.000000 -0.000000
Spine -52.754371 21.758995 -42.986781
RightShoulder 1.855029 37.449558 -47.493259
RightArm 18.141599 -20.505579 45.155590
RightForeArm 10.665843 0.000000 -1.101369
RightHand 6.332058 -0.000000 9.849270
RightHandThumb1 -24.326973 -0.000000 -32.862282
LeftShoulder -22.105045 11.211486 37.700707
LeftArm 5.181069 -13.403870 -45.634453
LeftForeArm 24.444566 -0.000000 -4.566639
LeftHand -30.929740 -0.000000 4.710529
LeftHandThumb1 -26.253704 0.000000 33.147579
Head -3.015664 21.675928 -8.845558
759
root 3.130298 31.704410 -5.647427 193.951474 69.065733 145.083749
RightUpLeg -41.146485 -29.985111 30.736996
RightLeg 4.909559 -0.000000 -0.000000
RightFoot -40.823871 -36.684417 36.917373
RightToeBase 17.470950 -0.000000 -0.000000
LeftUpLeg -70.063630 -24.908617 18.361825
LeftLeg 5.930806 -0.000000 -0.000000
LeftFoot 42.718066 -36.164322 -57.257354
LeftToeBase 28.712983 -0.000000 -0.000000
Spine -52.744970 21.734003 -43.019017
RightShoulder 1.893802 37.471325 -47.506731
RightArm 18.187911 -20.469011 45.179675
RightForeArm 10.579660 -0.000000 -1.098758
RightHand 6.220746 -0.000000 9.821829
RightHandThumb1 -24.326973 -0.000000 -32.862282
LeftShoulder -22.085766 11.160351 37.642866
LeftArm 5.205519 -13.301657 -45.846149
LeftForeArm 24.515038 -0.000000 -4.571738
LeftHand -30.835134 -0.000000 4.481637
LeftHandThumb1 -26.253704 0.000000 33.147579
Head -3.016760 21.683014 -8.756412
760
root 3.133983 31.699385 -5.637051 194.282195 68.893334 145.381139
RightUpLeg -41.152689 -29.940155 30.804634
RightLeg 4.886915 -0.000000 -0.000000
RightFoot -40.861565 -36.683684 36.943575
RightToeBase 17.434729 -0.000000 -0.000000
LeftUpLeg -70.047413 -24.855812 18.211138
LeftLeg 5.936190 -0.000000 -0.000000
LeftFoot 43.122175 -36.235686 -57.498231
LeftToeBase 28.484016 -0.000000 -0.000000
Spine -52.760086 21.677514 -43.070264
RightShoulder 1.947998 37.529111 -47.454911
RightArm 18.244060 -20.590550 45.138990
RightForeArm 10.624442 -0.000000 -1.147777
RightHand 6.138090 0.000000 9.869658
RightHandThumb1 -24.326973 -0.000000 -32.862282
LeftShoulder -22.009624 11.192719 37.590408
LeftArm 5.273720 -13.235453 -46.092556
LeftForeArm 24.588531 -0.000000 -4.593049
LeftHand -30.872569 -0.000000 4.347138
LeftHandThumb1 -26.253704 0.000000 33.147579
Head -2.978921 21.641384 -8.625823
761
root 3.137685 31.693638 -5.628201 194.559749 68.722493 145.642017
RightUpLeg -41.151211 -29.914577 30.852464
RightLeg 4.877052 -0.000000 -0.000000
RightFoot -40.936835 -36.703899 36.998343
RightToeBase 17.461998 -0.000000 -0.000000
LeftUpLeg -70.020181 -24.833154 18.094612
LeftLeg 5.915360 -0.000000 -0.000000
LeftFoot 43.472136 -36.197195 -57.789980
LeftToeBase 28.362186 -0.000000 -0.000000
Spine -52.749944 21.639070 -43.116453
RightShoulder 1.981877 37.595420 -47.450338
RightArm 18.269990 -20.632503 45.159566
RightForeArm 10.586844 -0.000000 -1.197459
RightHand 6.194880 -0.000000 9.891657
RightHandThumb1 -24.326973 -0.000000 -32.862282
LeftShoulder -21.989296 11.300563 37.495521
LeftArm 5.492413 -13.062412 -46.354355
LeftForeArm 24.435377 -0.000000 -4.718860
LeftHand -30.697438 0.000000 4.197795
LeftHandThumb1 -26.253704 0.000000 33.147579
Head -2.966350 21.626547 -8.538749
762
root 3.141761 31.687542 -5.621548 194.781183 68.561957 145.844624
RightUpLeg -41.148085 -29.877467 30.860448
RightLeg 4.889938 -0.000000 -0.000000
RightFoot -41.004701 -36.810892 36.980445
RightToeBase 17.561034 -0.000000 -0.000000
LeftUpLeg -69.997924 -24.825324 17.991353
LeftLeg 5.885535 -0.000000 -0.000000
LeftFoot 43.802051 -36.146394 -58.057819
LeftToeBase 28.163214 -0.000000 -0.000000
Spine -52.740967 21.597831 -43.163037
RightShoulder 2.042095 37.570983 -47.437812
RightArm 18.380433 -20.622952 45.141273
RightForeArm 10.573912 -0.000000 -1.243435
RightHand 6.249999 -0.000000 9.946537
RightHandThumb1 -24.326973 -0.000000 -32.862282
LeftShoulder -21.935469 11.333642 37.429478
LeftArm 5.545916 -13.000238 -46.595034
LeftForeArm 24.403820 0.000000 -4.667448
LeftHand -30.695929 -0.000000 3.817664
LeftHandThumb1 -26.253704 0.000000 33.147579
Head -2.946388 21.631665 -8.473570
763
root 3.146543 31.680796 -5.613209 195.043147 68.373493 146.096781
RightUpLeg -41.152193 -29.868087 30.904494
RightLeg 4.916445 -0.000000 -0.000000
RightFoot -41.098102 -36.821489 37.049543
RightToeBase 17.604989 -0.000000 -0.000000
LeftUpLeg -69.983945 -24.831923 17.903137
LeftLeg 5.877477 -0.000000 -0.000000
LeftFoot 44.115709 -36.175581 -58.277601
LeftToeBase 28.023713 -0.000000 -0.000000
Spine -52.708670 21.522559 -43.155592
RightShoulder 2.123940 37.574457 -47.412520
RightArm 18.454858 -20.587642 45.151542
RightForeArm 10.605527 -0.000000 -1.256992
RightHand 6.310187 -0.000000 9.952884
RightHandThumb1 -24.326973 -0.000000 -32.862282
LeftShoulder -21.887660 11.247782 37.420437
LeftArm 5.503390 -13.030911 -46.802621
LeftForeArm 24.379712 -0.000000 -4.717382
LeftHand -30.646276 -0.000000 3.790744
LeftHandThumb1 -26.253704 0.000000 33.147579
Head -2.915489 21.650121 -8.396164
